<svg height="496pt" viewBox="0 -12 496 496" width="496pt" xmlns="http://www.w3.org/2000/svg"><path d="m312 452v-49.457031c0-1.679688.351562-3.335938 1.03125-4.871094l29.929688-67.34375c.6875-1.535156 1.039062-3.191406 1.039062-4.871094v-33.457031c0-2.601562-.839844-5.121094-2.398438-7.199219l-19.203124-25.601562c-1.558594-2.078125-2.398438-4.597657-2.398438-7.199219v-75.6875c0-5-3.105469-9.480469-7.785156-11.234375l-54.175782-20.316406c-1.351562-.503907-2.773437-.761719-4.214843-.761719h-14.410157c-4.542968 0-8.703124 2.566406-10.734374 6.632812l-11.414063 22.832032c-.832031 1.664062-2.042969 3.109375-3.539063 4.230468l-26.527343 19.90625c-2.078125 1.558594-4.597657 2.398438-7.199219 2.398438-6.625 0-12 5.375-12 12v13.574219c0 4.019531-2.007812 7.761719-5.34375 9.984375l-37.3125 24.875c-3.335938 2.230468-5.34375 5.972656-5.34375 9.992187v19.148438c0 4.019531 2.007812 7.761719 5.34375 9.984375l13.3125 8.875c3.335938 2.230468 5.34375 5.972656 5.34375 9.992187v60.605469c0 3.183594 1.265625 6.234375 3.511719 8.488281l24.96875 24.96875c2.253906 2.246094 3.519531 5.296875 3.519531 8.480469v31.03125c0 6.625-5.375 12-12 12h-144c-6.625 0-12-5.375-12-12v-113.398438c0-1.714843.367188-3.410156 1.070312-4.96875l37.851563-83.265624c.710937-1.558594 1.078125-3.253907 1.078125-4.96875v-41.765626c0-2.367187.703125-4.6875 2.015625-6.65625l43.96875-65.953124c1.3125-1.976563 2.015625-4.289063 2.015625-6.65625v-23.398438c0-3.183594 1.265625-6.234375 3.511719-8.488281l50.074219-50.074219c1.574218-1.574219 3.566406-2.6875 5.734374-3.191406l131.328126-30.894532c.894531-.214843 1.816406-.320312 2.742187-.320312h19.777344c1.863281 0 3.703125.433594 5.367187 1.265625l70.832032 35.414063c4.066406 2.03125 6.632812 6.191406 6.632812 10.734374v46.640626c0 1.289062.207031 2.570312.617188 3.792968l14.765624 44.304688c.410157 1.222656.617188 2.503906.617188 3.792968v31.085938c0 4.304688 2.304688 8.28125 6.046875 10.417969l45.105469 25.765625c3.078125 1.761718 5.214844 4.785156 5.855468 8.273437l14.535157 79.953125c.304687 1.679688.25 3.398438-.167969 5.054688l-7.015625 28.054687c-.238281.96875-.359375 1.945313-.359375 2.929688v36.207031c0 1.527344.289062 3.039062.855469 4.457031l14.28125 35.710938c.574219 1.417969.863281 2.929687.863281 4.457031v25.6875c0 6.625-5.375 12-12 12h-152c-6.625 0-12-5.375-12-12zm0 0" fill="#ecc19c"/><g fill="#dfb28b"><path d="m64 384h-56v68c0 6.625 5.375 12 12 12h60l-8-48zm0 0"/><path d="m312.257812 400.089844c-.167968.804687-.257812 1.628906-.257812 2.453125v49.457031c0 6.625 5.375 12 12 12h152c6.625 0 12-5.375 12-12v-25.6875c0-.792969-.289062-1.535156-.449219-2.3125h-63.550781l-32-16h-56zm0 0"/><path d="m176 452v-31.03125c0-3.183594-1.265625-6.234375-3.511719-8.488281l-12.488281-12.480469h-56l-8 16h-24l-24 48h116c6.625 0 12-5.375 12-12zm0 0"/></g><path d="m494.566406 418.886719-14.277344-35.710938c-.191406-.480469-.289062-.984375-.289062-1.488281v-36.207031c0-.328125.039062-.648438.121094-.96875l7.007812-28.054688c.695313-2.792969.792969-5.632812.269532-8.433593l-14.535157-79.953126c-1.054687-5.824218-4.605469-10.847656-9.75-13.789062l-45.105469-25.777344c-1.238281-.703125-2.007812-2.03125-2.007812-3.472656v-31.085938c0-2.167968-.34375-4.296874-1.023438-6.328124l-14.769531-44.320313c-.144531-.394531-.207031-.808594-.207031-1.25v-46.632813c0-7.628906-4.238281-14.484374-11.054688-17.886718l-70.839843-35.421875c-2.761719-1.378907-5.847657-2.105469-8.9375-2.105469h-19.777344c-1.550781 0-3.101563.175781-4.582031.527344l-131.320313 30.90625c-3.625.847656-6.929687 2.695312-9.558593 5.328125l-50.074219 50.070312c-3.71875 3.71875-5.855469 8.871094-5.855469 14.136719v23.398438c0 .792968-.230469 1.5625-.671875 2.21875l-43.976563 65.957031c-2.191406 3.296875-3.351562 7.136719-3.351562 11.089843v41.765626c0 .570312-.128906 1.144531-.351562 1.65625l-37.855469 83.273437c-1.175781 2.574219-1.792969 5.441406-1.792969 8.273437v113.398438c0 11.023438 8.976562 20 20 20h144c11.023438 0 20-8.976562 20-20v-31.03125c0-5.265625-2.136719-10.417969-5.855469-14.144531l-24.96875-24.96875c-.75-.742188-1.175781-1.777344-1.175781-2.824219v-60.605469c0-6.707031-3.328125-12.921875-8.902344-16.640625l-13.3125-8.875c-1.121094-.742187-1.785156-1.988281-1.785156-3.335937v-19.160157c0-1.335937.664062-2.582031 1.785156-3.324218l37.3125-24.875c5.574219-3.71875 8.902344-9.933594 8.902344-16.640625v-13.574219c0-2.207031 1.792969-4 4-4 4.296875 0 8.550781-1.414062 12-4l26.535156-19.902344c2.480469-1.859375 4.511719-4.296875 5.890625-7.058594l11.414063-22.832031c.679687-1.359375 2.046875-2.207031 3.574218-2.207031h14.410157c.480469 0 .953125.089844 1.40625.257812l54.167969 20.308594c1.5625.585938 2.601562 2.089844 2.601562 3.753906v75.679688c0 4.296875 1.414062 8.550781 4 12l19.191406 25.59375c.527344.703125.808594 1.535156.808594 2.40625v33.457031c0 .558594-.121094 1.109375-.34375 1.621094l-29.929688 67.335937c-1.140624 2.578126-1.726562 5.3125-1.726562 8.128907v49.457031c0 11.023438 8.976562 20 20 20h152c11.023438 0 20-8.976562 20-20v-25.6875c0-2.550781-.480469-5.046875-1.433594-7.425781zm-478.566406 33.113281v-60h41.753906l5.765625 23.070312-20.464843 40.929688h-23.054688c-2.207031 0-4-1.792969-4-4zm152-31.03125v31.03125c0 2.207031-1.792969 4-4 4h-103.054688l16-32h24l8-16h47.742188l10.144531 10.144531c.742188.742188 1.167969 1.777344 1.167969 2.824219zm-33.785156-105.871094c1.121094.734375 1.785156 1.980469 1.785156 3.328125v60.605469c0 4.753906 1.816406 9.367188 4.902344 12.96875h-41.847656l-8 16h-12.808594l-8-32h-54.246094v-37.398438c0-.570312.128906-1.144531.351562-1.65625l36.382813-80.050781 39.417969 6.570313 19.839844 19.839844v6.261718c0 6.707032 3.328124 12.921875 8.902343 16.640625zm216.058594 18.488282c1.140624-2.578126 1.726562-5.3125 1.726562-8.128907v-33.457031c0-4.296875-1.414062-8.550781-4-12l-19.191406-25.59375c-.527344-.703125-.808594-1.535156-.808594-2.40625v-12h40v-16h-40v-47.679688c0-8.289062-5.214844-15.816406-12.976562-18.726562l-54.167969-20.304688c-2.246094-.855468-4.617188-1.289062-7.03125-1.289062h-14.410157c-7.628906 0-14.484374 4.238281-17.886718 11.054688l-11.421875 22.839843c-.273438.546875-.679688 1.035157-1.167969 1.410157l-26.53125 19.894531c-.703125.519531-1.535156.800781-2.40625.800781-11.023438 0-20 8.976562-20 20v13.574219c0 1.335937-.664062 2.585937-1.785156 3.328125l-37.3125 24.875c-3.246094 2.167968-5.605469 5.230468-7.117188 8.6875l-13.945312-13.945313-43.839844-7.296875v-37.589844c0-.792968.230469-1.5625.671875-2.21875l43.609375-65.414062h21.253906l80-32h38.464844v-16h-41.535156l-80 32h-14.464844v-19.03125c0-1.046875.425781-2.082031 1.167969-2.832031l50.070312-50.074219c.53125-.519531 1.1875-.894531 1.914063-1.0625l131.335937-30.902344c.296875-.066406.601563-.097656.902344-.097656h19.777344c.617187 0 1.238281.152344 1.792969.425781l70.832031 35.414063c1.359375.679687 2.207031 2.046875 2.207031 3.574218v25.632813l-13.574219-9.046875h-51.722656l-49.230469 16.40625 5.0625 15.179688 46.761719-15.585938h44.277344l18.425781 12.28125v1.765625c0 2.167969.34375 4.296875 1.023438 6.328125l14.769531 44.320312c.144531.402344.207031.816407.207031 1.257813v30.046875h-24v16h30.9375c.992188.863281 1.984375 1.734375 3.140625 2.398438l45.097656 25.777343c1.03125.585938 1.746094 1.59375 1.953125 2.761719l14.535156 79.964844c.105469.554687.078126 1.121094-.054687 1.671875l-7.007813 28.058593c-.402343 1.582032-.601562 3.214844-.601562 4.847657v19.925781l-19.601562-20.367188-20.398438-6.808593v-18.230469h-16v29.769531l27.601562 9.199219 30.40625 31.597656 10.175782 25.433594h-50.296875l-25.886719-12.945312v-19.054688h-16v16h-46.703125l-14.410156-4.800781zm125.726562 122.414062h-152c-2.207031 0-4-1.792969-4-4v-40.902344l14.703125 4.902344h55.410156l32 16h57.886719v20c0 2.207031-1.792969 4-4 4zm0 0"/><path d="m416 248h16v16h-16zm0 0"/><path d="m112 168h16v16h-16zm0 0"/><path d="m256 40h16v16h-16zm0 0"/><path d="m344 112h16v16h-16zm0 0"/><path d="m88 208h16v16h-16zm0 0"/><path d="m48 296h16v16h-16zm0 0"/><path d="m96 336h16v16h-16zm0 0"/><path d="m32 336h16v16h-16zm0 0"/><path d="m376 288h16v16h-16zm0 0"/></svg>