<svg id="Layer_3" enable-background="new 0 0 64 64" height="512" viewBox="0 0 64 64" width="512" xmlns="http://www.w3.org/2000/svg"><g><path d="m46 34v-9l-2-3c0-4.29-2.424-8.212-6.261-10.13l-1.739-.87h-8l-1.739.87c-3.837 1.918-6.261 5.84-6.261 10.13l-2 3v9z" fill="#e7b541"/><path d="m44 22c0-4.29-2.424-8.212-6.261-10.13l-1.739-.87h-5l-1.739.87c-3.837 1.918-6.261 5.84-6.261 10.13l-2 3v9h25v-9z" fill="#f9cb6e"/><g><path d="m15 34h34v4h-34z" fill="#a34b33"/><path d="m19 36h30v-2h-32c0 1.105.895 2 2 2z" fill="#c6644e"/></g><path d="m13 42h38v12h-38z" fill="#5a5b5d"/><path d="m16 47c0 2.209 1.791 4 4 4h31v-9h-35z" fill="#777"/><path d="m19 42h6v12h-6z" fill="#969696"/><path d="m22 42v7c0 1.657 1.343 3 3 3v-10z" fill="#b5b5b5"/><path d="m29 42h6v12h-6z" fill="#969696"/><path d="m32 42v7c0 1.657 1.343 3 3 3v-10z" fill="#b5b5b5"/><path d="m39 42h6v12h-6z" fill="#969696"/><path d="m42 42v7c0 1.657 1.343 3 3 3v-10z" fill="#b5b5b5"/><path d="m10.999 58h42v4h-42z" fill="#662a12"/><path d="m15.001 60h37.999v-2h-39.999c0 1.104.895 2 2 2z" fill="#893b20"/><path d="m13 54h38v4h-38z" fill="#a34b33"/><path d="m17 56h34v-2h-36c0 1.105.895 2 2 2z" fill="#c6644e"/><g><path d="m19 47h6v2h-6z" fill="#969696"/></g><path d="m34 7v-3l-2-2-2 2v3" fill="#a34b33"/><path d="m36 11v-4h-8v4z" fill="#777"/><path d="m30 7h6v4h-6z" fill="#969696"/><path d="m13 38h38v4h-38z" fill="#662a12"/><path d="m17 40h34v-2h-36c0 1.105.895 2 2 2z" fill="#893b20"/><path d="m18 26h28v4h-28z" fill="#777"/><g><g><path d="m21 30h2v4h-2z" fill="#c99735"/></g><g><path d="m25 30h2v4h-2z" fill="#c99735"/></g><g><path d="m29 30h2v4h-2z" fill="#c99735"/></g><g><path d="m22 23h2v3h-2z" fill="#fff"/></g><g><path d="m28 23h2v3h-2z" fill="#fff"/></g><g><path d="m41 30h2v4h-2z" fill="#c99735"/></g><g><path d="m37 30h2v4h-2z" fill="#c99735"/></g><g><path d="m33 30h2v4h-2z" fill="#c99735"/></g><g><path d="m40 23h2v3h-2z" fill="#fff"/></g><g><path d="m34 23h2v3h-2z" fill="#fff"/></g></g><g><path d="m39 47h6v2h-6z" fill="#969696"/></g><g><path d="m29 47h6v2h-6z" fill="#969696"/></g><path d="m21 26h25v4h-25z" fill="#969696"/></g></svg>