<svg height="512" viewBox="0 0 512 512" width="512" xmlns="http://www.w3.org/2000/svg"><g id="filled_outline" data-name="filled outline"><path d="m245.237 302.354-37.044-30.139a49.2 49.2 0 0 1 -17.741-31.84 49.2 49.2 0 0 1 9.818-36.354l15.183-19.7 4.329-6.117 146.409-13.424 1.206 3.563a48.484 48.484 0 0 1 -18.847 55.757 48.474 48.474 0 0 1 -30.394 8.152l-64.8-4.444 35.454 40.252z" fill="#0a9acd"/><path d="m193.442 101.748 43.2 3.723a303.177 303.177 0 0 1 95.527 25.994 70.342 70.342 0 0 1 34.017 33.311l-182.468 23.654-10.569 1.613 4.4-49.215z" fill="#e82f3e"/><path d="m115.107 156.989 8.962 6.906 23.801-3.086 47.975-51.206-18.297-1.485-23.067-20.768" fill="#0a9acd"/><path d="m288.812 268.057-43.575 34.3 24.709 20.1-20.59 13.862a25.463 25.463 0 0 0 -4.974 37.853l78.525-17.242 11.056-33.364-.675-1.076a282.6 282.6 0 0 0 -44.476-54.433z" fill="#ea9d2d"/><path d="m97.183 143.179 19.687-34.82 24.829 4.849 2.057 15.867-28.649 27.914z" fill="#fbb540"/><path d="m141.699 113.208 12.782-25.858-17.924-13.81-20.601 37.249z" fill="#c38325"/><path d="m38.111 255.64a8 8 0 0 1 -.713-15.969l414.602-22.61a8 8 0 0 1 1.449 15.939l-414.6 22.61q-.374.03-.738.03z" fill="#cbcbcb"/><path d="m438.906 250.953a8 8 0 0 1 -7.924-6.973l-4.113-31.735a8 8 0 0 1 15.867-2.057l4.114 31.736a8 8 0 0 1 -6.906 8.962 8.109 8.109 0 0 1 -1.038.067z" fill="#a8a8a8"/><path d="m41.881 369.863h448a0 0 0 0 1 0 0 32 32 0 0 1 -32 32h-384a32 32 0 0 1 -32-32 0 0 0 0 1 0 0z" fill="#fbb540" transform="matrix(.976 -.217 .217 .976 -77.547 67.052)"/><path d="m35.1 461.672a8 8 0 0 1 -1.732-15.811l452.9-100.9a8 8 0 1 1 3.478 15.617l-452.9 100.9a8.054 8.054 0 0 1 -1.746.194z" fill="#eaeae8"/><path d="m81.1 484.208a8 8 0 0 1 -1.734-15.808l39.043-8.7a8 8 0 0 1 3.479 15.617l-39.043 8.7a7.992 7.992 0 0 1 -1.745.191z" fill="#cbcbcb"/><path d="m166.991 465.071a8 8 0 0 1 -1.731-15.81l117.129-26.1a8 8 0 1 1 3.478 15.617l-117.129 26.1a7.992 7.992 0 0 1 -1.747.193z" fill="#eaeae8"/><path d="m323.163 430.278a8 8 0 0 1 -1.731-15.81l39.042-8.7a8 8 0 0 1 3.478 15.617l-39.042 8.7a7.992 7.992 0 0 1 -1.747.193z" fill="#cbcbcb"/><path d="m393.439 414.621a8 8 0 0 1 -1.731-15.81l70.277-15.658a8 8 0 0 1 3.479 15.618l-70.277 15.657a8 8 0 0 1 -1.748.193z" fill="#eaeae8"/><path d="m275.462 473.69a8 8 0 0 1 -1.732-15.81l101.511-22.616a8 8 0 0 1 3.479 15.617l-101.511 22.619a7.992 7.992 0 0 1 -1.747.19z" fill="#eaeae8"/><path d="m198.214 490.9a8 8 0 0 1 -1.732-15.81l33.8-7.53a8 8 0 0 1 3.479 15.617l-33.8 7.53a7.992 7.992 0 0 1 -1.747.193z" fill="#cbcbcb"/><g fill="#b0d2fd"><path d="m349.987 293.164a8 8 0 0 1 -1.731-15.81l54.66-12.178a8 8 0 0 1 3.479 15.617l-54.661 12.178a7.992 7.992 0 0 1 -1.747.193z"/><path d="m364.755 322.658a8 8 0 0 1 -1.732-15.81l23.426-5.219a8 8 0 0 1 3.479 15.617l-23.428 5.219a7.992 7.992 0 0 1 -1.745.193z"/><path d="m222.3 51.139a8 8 0 0 1 -1.732-15.811l85.894-19.137a8 8 0 0 1 3.478 15.618l-85.891 19.136a7.994 7.994 0 0 1 -1.749.194z"/><path d="m252.686 77.153a8 8 0 0 1 -1.732-15.81l23.426-5.219a8 8 0 1 1 3.478 15.617l-23.425 5.219a7.992 7.992 0 0 1 -1.747.193z"/><path d="m307.346 64.976a8 8 0 0 1 -1.732-15.811l46.852-10.437a8 8 0 1 1 3.478 15.617l-46.851 10.437a7.994 7.994 0 0 1 -1.747.194z"/></g><path d="m97.526 145.824-10.534-6.2a37.177 37.177 0 0 1 -18-27.255 37.174 37.174 0 0 1 24.2-39.729l41.308-14.968 2.057 15.868z" fill="#e82f3e"/><path d="m72.647 202.828-15.867 2.057-8.962-6.905-21.744 18.952 15.091 38.463 36.625-12.899z" fill="#ea9d2d"/><path d="m181.37 109.242-47.31 69.491-61.413 24.1 5.143 39.667 84.184-35.113 56.856-51.877a39.73 39.73 0 0 0 12.622-34.457 27.317 27.317 0 0 0 -10.416-18.125 27.312 27.312 0 0 0 -20.182-5.45l-.417.054a27.315 27.315 0 0 0 -19.067 11.71z" fill="#e82f3e"/><path d="m182.585 188.577 36.245-33.071-13.739 30.154z" fill="#961b20"/><path d="m495.809 351.03a8 8 0 0 0 -9.546-6.07 39.7 39.7 0 0 0 2.587-25.16 8 8 0 0 0 -9.548-6.068l-144.302 32.144 6.559-19.792a8 8 0 0 0 -.818-6.769l-19.5-31.081c-.018-.029-48.257-45.392-48.257-45.392l156.746-8.548 1.255 9.686a8 8 0 0 0 7.924 6.973 8.109 8.109 0 0 0 1.038-.067 8 8 0 0 0 6.906-8.962l-1.1-8.5 7.414-.4a8 8 0 1 0 -.871-15.977l-8.606.469-.949-7.32a8 8 0 0 0 -15.867 2.057l.8 6.137-64.446 3.51a56.637 56.637 0 0 0 11.747-56.123s-1.435-4.155-1.542-4.383c-.015-.032-.025-.066-.04-.1a78.531 78.531 0 0 0 -37.886-37.1 310.563 310.563 0 0 0 -98.047-26.68l-11.684-1.193c-.08-.008-.16-.006-.24-.012a35.068 35.068 0 0 0 -25.705-6.769l-.423.055c-.956.124-1.9.3-2.835.5a7.982 7.982 0 0 0 -1.4.05l-13.465 1.745-22.972-11.362-14.671-11.3-1.631-12.581a8 8 0 0 0 -10.66-6.494l-41.308 14.964a45.173 45.173 0 0 0 -7.533 81.4l10.533 6.2a8 8 0 0 0 4.059 1.106c.112 0 .224-.018.336-.022l12.364 9.525 8.962 6.905a8 8 0 0 0 4.882 1.664 7.913 7.913 0 0 0 1.029-.067l4.37-.566-.631.926-58.195 22.833-11.6 1.5-6.342-4.878a8 8 0 0 0 -10.139.306l-21.744 18.951a8 8 0 0 0 -2.19 8.952l12.047 30.707a7.982 7.982 0 0 0 6.591 5.013 5.4 5.4 0 0 0 .849.065h.005c.145 0 .291 0 .438-.012l145.152-7.916a56.916 56.916 0 0 0 19.436 30.709l37.043 30.139 16.336 13.291-11.635 7.834a33.455 33.455 0 0 0 -12.789 39.118l-190.077 42.348a8 8 0 0 0 -6.069 9.548 39.687 39.687 0 0 0 13.025 21.686l-15.615 3.479a8 8 0 1 0 3.479 15.618l46.833-10.435h.018.01l406.035-90.46a8 8 0 0 0 6.07-9.554zm-207.5-72.4 13.42 12.781-31.329 21.099-12.36-10.053zm-90.152-47.73a40.91 40.91 0 0 1 8.45-22l13.159-17.08 140.853-18.258a40.437 40.437 0 0 1 -32.641 50.253zm-12.043-34.712 11.214-1.454-3.394 4.406a56.756 56.756 0 0 0 -11.843 32.636l-66.51 3.627 49.474-20.635a8.014 8.014 0 0 0 2.312-1.475zm166.926-37.774-146.315 18.967 17.5-15.965a47.769 47.769 0 0 0 15.163-41.395 35.78 35.78 0 0 0 -1.427-6.353 294.557 294.557 0 0 1 90.882 25.069 62.49 62.49 0 0 1 24.197 19.677zm-238.546-12-5.789-4.46 13.209-24.454 12.593 2.458.8 6.183zm24.633-60.8 5.276 4.066-7.168 14.5-7.358-1.437zm-62.205 25.725a29 29 0 0 1 18.994-31.179l31.933-11.569.443 3.419-35.1 61.977-2.139-1.259a28.986 28.986 0 0 1 -14.131-21.389zm51.407 43.937 21.01-20.471a8 8 0 0 0 2.35-6.758l-1.745-13.465 8.164-16.515 15.856 7.838-32.449 47.661zm8.652 30.905a8 8 0 0 0 3.692-2.946l47.31-69.491a19.327 19.327 0 0 1 13.476-8.283l.423-.055a19.316 19.316 0 0 1 21.637 16.671 31.756 31.756 0 0 1 -10.081 27.523l-55.828 50.935-73.233 30.546-2.993-23.087zm-88.85 22.138 3.766 2.9a7.98 7.98 0 0 0 5.912 1.6l7.933-1.028 3.086 23.8-25.541 3.309-7.707-19.641zm151.938 38.5 50.48-2.754 25.889 23.551-21.775 17.138-9.344 7.353-32.077-26.1a41.017 41.017 0 0 1 -13.173-19.188zm47.865 118.381a17.463 17.463 0 0 1 5.89-22.247l58.252-39.219 13.109 20.892-8.386 25.3zm-193.285 59.528 419-93.349a24.048 24.048 0 0 1 -18.62 20.54h-.012l-374.817 83.507a24.042 24.042 0 0 1 -25.551-10.698z"/><path d="m118.409 459.7-39.043 8.7a8 8 0 1 0 3.479 15.618l39.043-8.7a8 8 0 0 0 -3.479-15.617z"/><path d="m291.937 429.235a8 8 0 0 0 -9.548-6.069l-117.129 26.1a8 8 0 1 0 3.478 15.617l117.129-26.095a8 8 0 0 0 6.07-9.553z"/><path d="m323.163 430.278a7.992 7.992 0 0 0 1.747-.193l39.042-8.7a8 8 0 0 0 -3.478-15.617l-39.042 8.7a8 8 0 0 0 1.731 15.81z"/><path d="m461.985 383.153-70.277 15.658a8 8 0 1 0 3.479 15.617l70.277-15.657a8 8 0 0 0 -3.479-15.618z"/><path d="m375.241 435.264-101.511 22.616a8 8 0 1 0 3.479 15.617l101.511-22.616a8 8 0 0 0 -3.479-15.617z"/><path d="m230.282 467.56-33.8 7.53a8 8 0 1 0 3.479 15.617l33.8-7.53a8 8 0 0 0 -3.479-15.617z"/><path d="m412.464 271.245a8 8 0 0 0 -9.548-6.069l-54.66 12.178a8 8 0 1 0 3.478 15.617l54.666-12.178a8 8 0 0 0 6.064-9.548z"/><path d="m386.449 301.629-23.426 5.219a8 8 0 1 0 3.479 15.617l23.426-5.219a8 8 0 0 0 -3.479-15.617z"/><path d="m222.3 51.139a7.994 7.994 0 0 0 1.747-.194l85.893-19.136a8 8 0 0 0 -3.478-15.618l-85.892 19.137a8 8 0 0 0 1.73 15.811z"/><path d="m274.38 56.124-23.426 5.219a8 8 0 1 0 3.479 15.617l23.425-5.219a8 8 0 1 0 -3.478-15.617z"/><path d="m299.545 58.713a7.987 7.987 0 0 0 9.548 6.069l46.851-10.437a8 8 0 1 0 -3.478-15.617l-46.852 10.437a8 8 0 0 0 -6.069 9.548z"/></g></svg>